<svg xmlns="http://www.w3.org/2000/svg" width="60" height="72" viewBox="0 0 60 72"><path class="icon" fill="#19cf86" d="M49 9H11c-4.418 0-8 3.582-8 8v38c0 4.418 3.582 8 8 8h38c4.418 0 8-3.582 8-8V17c0-4.418-3.582-8-8-8zM21 44h10c1.657 0 3 1.343 3 3s-1.343 3-3 3H17c-1.657 0-3-1.343-3-3V36H9c-.77 0-1.47-.44-1.803-1.134-.333-.692-.24-1.516.24-2.115l8-10c.76-.947 2.365-.947 3.124 0l8 10c.48.6.576 1.425.243 2.117C26.47 35.56 25.77 36 25 36h-5v7c0 .553.448 1 1 1zm31.562-4.75l-8 10c-.38.474-.954.75-1.562.75s-1.182-.276-1.562-.75l-8-10c-.48-.6-.574-1.424-.24-2.116C33.53 36.44 34.23 36 35 36h5v-7c0-.553-.447-1-1-1H29c-1.657 0-3-1.343-3-3s1.343-3 3-3h14c1.657 0 3 1.343 3 3v11h5c.77 0 1.47.44 1.803 1.134.333.692.24 1.515-.24 2.115z"/></svg>